<svg xmlns="http://www.w3.org/2000/svg" viewBox="0 0 144.22 144.22">
    <path class="cls-1"
          d="M118.08,0H26.14C11.76,0,0,11.76,0,26.14v91.94c0,14.38,11.76,26.14,26.14,26.14h91.94c14.38,0,26.14-11.76,26.14-26.14V26.14c0-14.38-11.76-26.14-26.14-26.14ZM134.99,112.08c0,12.6-10.31,22.91-22.91,22.91H32.14c-12.6,0-22.91-10.31-22.91-22.91V32.14c0-12.6,10.31-22.91,22.91-22.91h79.94c12.6,0,22.91,10.31,22.91,22.91v79.94Z"/>
    <path class="cls-1"
          d="M72.11,21.86c-27.96,0-50.62,22.66-50.62,50.62s22.66,50.62,50.62,50.62,50.62-22.66,50.62-50.62-22.66-50.62-50.62-50.62ZM72.11,118.61c-25.48,0-46.13-20.65-46.13-46.13s20.65-46.13,46.13-46.13,46.13,20.65,46.13,46.13c0,8.73-2.43,16.89-6.64,23.85l2.59,4.28-4.95-.76c-8.4,11.38-21.9,18.76-37.13,18.76Z"/>
    <path class="cls-1"
          d="M116.39,70.06c-.34-6.32-2.01-12.29-4.73-17.64-4.67,1.38-9.86,2.91-9.86,2.91l7.45-7.09c-3.36-5.15-7.77-9.55-12.91-12.91-3.36,3.53-7.09,7.45-7.09,7.45l2.91-9.86c-5.35-2.72-11.31-4.39-17.64-4.73-1.14,4.74-2.41,10-2.41,10l-2.41-10c-6.32.34-12.29,2.01-17.64,4.73,1.38,4.67,2.91,9.86,2.91,9.86l-7.09-7.45c-5.15,3.36-9.55,7.77-12.91,12.91,3.53,3.36,7.45,7.09,7.45,7.09l-9.86-2.91c-2.72,5.35-4.39,11.31-4.73,17.64,4.74,1.14,10,2.41,10,2.41l-10,2.41c.34,6.32,2.01,12.29,4.73,17.64,4.67-1.38,9.86-2.91,9.86-2.91l-7.45,7.09c3.36,5.15,7.77,9.55,12.91,12.91,3.36-3.53,7.09-7.45,7.09-7.45l-2.91,9.86c5.35,2.72,11.31,4.39,17.64,4.73,1.14-4.74,2.41-10,2.41-10l2.41,10c6.32-.34,12.29-2.01,17.64-4.73-1.38-4.67-2.91-9.86-2.91-9.86l7.09,7.45c4.17-2.73,7.84-6.14,10.88-10.08l-10.36-1.58-3.62-6.89-2.92-2.57c-4.45,5.05-10.95,8.24-18.21,8.24-3.58,0-6.98-.78-10.05-2.18l.03,2-14.51,1.49.89-14.56,2-.06c-1.67-3.29-2.62-7.01-2.62-10.96,0-13.4,10.86-24.26,24.26-24.26s24.26,10.86,24.26,24.26c0,3.84-.9,7.47-2.49,10.7l3.48,1.71,7.75.71,3.68,6.08,2.87.85c2.72-5.35,4.39-11.31,4.73-17.64-4.74-1.14-10-2.41-10-2.41l10-2.41Z"/>
    <path class="cls-1"
          d="M72.11,72.47l13.92,6.84c1.02-2.06,1.59-4.38,1.59-6.84,0-8.56-6.94-15.51-15.51-15.51s-15.51,6.94-15.51,15.51c0,3.08.9,5.94,2.45,8.35l13.06-8.35-7.8,13.4c2.29,1.34,4.96,2.11,7.8,2.11,4.64,0,8.8-2.04,11.64-5.26l-11.64-10.24Z"/>
</svg>